HIERARCHY
ROOT pelvis
{
  OFFSET 0 100 0
  CHANNELS 6 Xposition Yposition Zposition Zrotation Xrotation Yrotation
  JOINT pelvis_right_femur
  {
    OFFSET -10.78128 -3.44521 -0.5502486
    CHANNELS 3 Zrotation Xrotation Yrotation
    JOINT right_femur_tibia
    {
      OFFSET -0.8047443 -44.0398 -0.1307829
      CHANNELS 3 Zrotation Xrotation Yrotation
      JOINT right_tibia_foot
      {
        OFFSET 3.006224 -47.83518 -5
        CHANNELS 3 Zrotation Xrotation Yrotation
        End Site
        {
          OFFSET 0 -5 15
        }
      }
    }
  }
  JOINT pelvis_left_femur
  {
    OFFSET 10.78128 -3.44521 -0.5502486
    CHANNELS 3 Zrotation Xrotation Yrotation
    JOINT left_femur_tibia
    {
      OFFSET 0.8047443 -44.0398 -0.1307829
      CHANNELS 3 Zrotation Xrotation Yrotation
      JOINT left_tibia_foot
      {
        OFFSET -4.370144 -48.10324 -4.275266
        CHANNELS 3 Zrotation Xrotation Yrotation
        End Site
        {
          OFFSET 0 -5 15
        }
      }
    }
  }
  JOINT pelvis_spine1
  {
    OFFSET 0 6.468898 -3.129235
    CHANNELS 3 Zrotation Xrotation Yrotation
    JOINT spine1
    {
      OFFSET 0 23.15396 4.99043
      CHANNELS 3 Zrotation Xrotation Yrotation
      JOINT spine2
      {
        OFFSET 0 20.79997 -5.064912
        CHANNELS 3 Zrotation Xrotation Yrotation
        JOINT neck
        {
          OFFSET 0 14.38658 9.616178
          CHANNELS 3 Zrotation Xrotation Yrotation
          End Site
          {
            OFFSET 0 20 0
          }
        }
      }
      JOINT right_manubrium
      {
        OFFSET -5.722621 16.35077 3.967754
        CHANNELS 3 Zrotation Xrotation Yrotation
        JOINT right_clavicle
        {
          OFFSET -13.16364 1.694482 -4.693211
          CHANNELS 3 Zrotation Xrotation Yrotation
          JOINT right_humerus
          {
            OFFSET -28.5034 -0.3100689 -2.792744
            CHANNELS 3 Zrotation Xrotation Yrotation
            JOINT right_radius
            {
              OFFSET -25.15693 0.02248979 -1.271978
              CHANNELS 3 Zrotation Xrotation Yrotation
              End Site
              {
                OFFSET -15 0 0
              }
            }
          }
        }
      }
      JOINT left_manubrium
      {
        OFFSET 5.722621 16.35077 3.967754
        CHANNELS 3 Zrotation Xrotation Yrotation
        JOINT left_clavicle
        {
          OFFSET 13.16364 1.694482 -4.693211
          CHANNELS 3 Zrotation Xrotation Yrotation
          JOINT left_humerus
          {
            OFFSET 29.39168 -1.063119 -2.237045
            CHANNELS 3 Zrotation Xrotation Yrotation
            JOINT left_radius
            {
              OFFSET 24.59957 -0.9528479 0.9047498
              CHANNELS 3 Zrotation Xrotation Yrotation
              End Site
              {
                OFFSET 15 -0 -0
              }
            }
          }
        }
      }
    }
  }
}
MOTION
Frames: 17
Frame Time: 0.0416666666667
31.07343 100.9514 260.7085 0.05363121 -1.84727 -0.006020384 2.899558 10.8565 6.120788 -0 30.09466 -0 -1.461834 -10.31676 -5.386338 0.8370824 -28.6586 -1.397478 -0 22.18178 -0 -6.14226 -6.511929 18.39017 0.5983821 -4.182288 9.54417 -3.168454 10.72674 -1.291589 2.375764 19.6513 4.778936 1.857097 -17.76526 6.376097 -0.3391617 -23.88024 11.59504 81.66166 16.56039 -7.587513 -0 0 30.08455 -25.43931 10.26475 14.37368 2.632355 -14.86839 -3.680131 -92.76603 22.12501 28.67891 0 0 -10.09244 -4.685972 2.150611 19.22952
32.45906 101.0069 268.4527 0.05550993 -1.869851 -0.1313251 2.312807 10.77796 6.247294 -0 37.17588 -0 -0.5812985 -7.130701 -5.045773 -0.31314 -27.43284 -3.16849 -0 23.8036 -0 -5.725097 -7.219305 17.69201 0.4269503 -5.518367 9.596907 -3.056042 10.85424 -1.277102 2.530256 19.83817 4.649495 1.764842 -17.45246 6.485063 -0.002940576 -22.95185 11.09206 82.4662 16.23228 -8.752058 -0 0 28.76629 -25.14205 10.23776 13.90108 2.766323 -14.38375 -3.409685 -92.40411 22.29607 28.47284 0 0 -9.713962 -4.710883 2.157809 19.32089
33.79955 101.7209 275.7267 0.06504844 -1.69366 0.7294349 2.60304 6.925744 6.030056 -0 44.36529 -0 -1.072784 -6.86918 -4.920684 -1.5737 -24.03781 -4.420236 -0 25.21254 -0 -5.1113 -8.870342 17.02943 0.2246561 -6.677102 9.111677 -2.986119 11.02105 -1.518978 2.615289 20.2814 4.555532 1.638341 -17.06739 6.596897 0.7692581 -21.8618 10.85737 83.42669 16.18851 -10.30365 -0 0 26.47112 -24.57648 10.3582 13.16033 2.75708 -14.61721 -3.439397 -91.30001 22.657 27.21608 0 0 -9.857001 -4.509739 2.254501 19.13463
35.12134 102.7465 282.3254 0.07057919 -1.475366 1.795769 1.916088 1.606775 5.219334 -0 51.64296 -0 -1.407873 -6.869122 -6.814279 -2.711913 -19.83824 -5.171046 -0 24.97751 -0 -4.356664 -11.07458 16.34859 0.1529463 -7.290893 8.29772 -2.924728 11.04445 -1.843572 2.555958 20.82557 4.591377 1.435125 -16.54373 6.762566 1.705758 -21.07497 10.93741 84.257 16.38159 -11.731 -0 0 23.92555 -23.8075 10.57639 12.38904 2.604716 -15.46598 -3.695298 -89.68746 23.07745 24.94176 0 0 -10.58001 -4.111012 2.443597 18.70903
36.36083 104.137 288.6486 0.07134 -1.216777 3.060973 1.779023 -5.164785 4.662321 -0 55.53018 -0 -1.711886 -6.889393 -8.371848 -3.484252 -15.18624 -5.62075 -0 23.58796 -0 -3.938702 -12.8355 15.63228 -0.09862352 -7.759602 6.973915 -2.705832 11.26081 -2.604339 2.473161 21.64441 4.696824 1.238325 -15.7099 6.988686 2.403253 -20.18131 10.79759 85.53943 16.67873 -13.31905 -0 0 21.68084 -22.88774 10.79455 11.69752 2.65028 -16.2907 -4.037751 -88.00869 23.42748 22.15458 0 0 -11.65497 -3.619548 2.669502 18.18721
37.46972 105.1741 294.2457 0.06549456 -0.926742 4.48129 1.627435 -9.576544 4.043759 -0 55.69733 -0 -1.19372 -5.013271 -9.591131 -3.977321 -10.74746 -6.078519 -0 21.42393 -0 -3.810049 -14.21488 14.79752 -0.3001581 -8.067929 5.619272 -2.338808 11.00229 -3.660097 2.342899 22.20378 4.963819 0.9976284 -15.09654 7.392312 2.51234 -19.14843 10.50381 86.80843 16.94018 -14.96651 -0 0 19.9363 -21.9708 10.91525 11.15629 3.025795 -17.16529 -4.495583 -86.38172 23.63431 18.79418 0 0 -13.44334 -3.046979 2.952291 17.46703
38.65432 106.1357 299.9791 0.04768706 -0.5528408 6.331882 1.719974 -17.1758 4.008298 -0 51.14969 -0 -1.392872 -5.301544 -10.76738 -4.306727 -6.045781 -6.503737 -0 18.93677 -0 -3.901301 -15.39885 13.78182 -0.6625594 -8.320951 4.191273 -1.762852 10.80759 -5.104552 2.433784 22.80067 5.070002 0.8916586 -14.49458 7.761286 2.338296 -17.9705 9.846693 87.96772 17.0548 -16.85699 -0 0 18.31143 -21.05327 10.9089 10.61702 3.507875 -18.07365 -4.914855 -84.81942 23.71792 15.23535 0 0 -15.70264 -2.445829 3.299439 16.50112
39.81579 106.2427 305.6942 0.009639912 -0.09096465 8.640424 1.415137 -22.79818 4.3878 -0 44.18227 -0 -1.914614 -4.825903 -11.89722 -4.331742 -1.813822 -6.92763 -0 16.74172 -0 -4.023907 -16.7535 12.66875 -1.142671 -8.445162 2.771658 -1.107585 10.44425 -6.691317 2.707852 23.14679 5.011062 0.8957728 -14.09084 8.051425 1.79618 -16.9226 9.087536 88.57987 17.17076 -18.63874 -0 0 16.6354 -20.21426 10.85408 10.03679 4.197377 -18.85126 -5.341366 -83.3856 23.72293 11.72459 0 0 -18.25534 -1.828103 3.673622 15.36267
40.8614 105.7734 311.5162 -0.03760796 0.3053776 10.64236 0.6139045 -28.34685 4.367567 -0 34.78352 -0 -2.714785 -4.034234 -13.08382 -4.141867 2.154127 -7.201084 -0 15.3562 -0 -4.161124 -18.34407 11.63509 -1.563924 -8.42136 1.770929 -0.5147176 9.91847 -7.829107 3.08959 23.34435 4.777899 0.9804798 -13.89196 8.185758 1.409706 -15.69241 8.418039 89.22068 17.2504 -20.45593 -0 0 14.54306 -19.24398 10.75798 9.210868 4.958308 -19.98566 -5.37383 -81.84042 23.57271 8.088621 0 0 -21.27277 -1.089188 4.187638 14.03521
41.8508 104.426 317.1297 -0.06887408 0.5205768 11.74023 0.06990831 -28.88116 3.127406 -0 23.9591 -0 -4.161038 -4.715586 -13.30242 -3.922829 5.59232 -7.333794 -0 15.17114 -0 -4.337665 -20.07985 10.86619 -1.872965 -7.823774 1.227532 -0.005461874 9.336406 -8.513784 3.483079 23.18152 4.490203 1.095515 -13.95614 8.225917 1.203068 -14.41088 7.977456 90.06007 17.32442 -22.08841 -0 0 12.04076 -18.03443 10.67073 8.109298 5.837263 -21.21117 -5.194041 -80.4226 23.32969 4.74688 0 0 -24.26747 -0.2434376 4.776079 12.63718
42.65231 103.2422 322.7783 -0.06924353 0.5245165 11.76549 0.7544652 -30.19338 1.075137 -0 15.08324 -0 -5.545496 -5.346051 -13.65675 -3.763245 8.496629 -7.346482 -0 16.39447 -0 -4.738084 -21.27115 10.36948 -1.902498 -7.015196 1.404933 0.360386 8.826972 -8.444064 3.664356 23.10096 4.28353 1.131587 -14.13349 8.17391 1.498097 -13.69066 7.980934 90.49675 17.5571 -23.00492 -0 0 9.618976 -16.9301 10.627 7.068636 6.323876 -22.27613 -4.858011 -79.13729 23.04239 1.829912 0 0 -26.59826 0.5984019 5.372239 11.3055
43.23773 102.0017 328.7906 -0.08397656 0.6179201 12.24807 1.656897 -31.12945 0.2033827 -0 10.67332 -0 -6.763259 -5.70223 -13.59634 -3.288552 10.7131 -7.302401 -0 19.08477 -0 -5.432627 -21.45306 10.0579 -1.821106 -6.592067 1.574865 0.6318178 8.41708 -8.262908 3.690688 23.08539 4.095893 1.127187 -14.32146 7.987048 1.944652 -13.15546 7.99597 90.9116 17.82248 -23.6782 -0 0 7.449056 -15.94552 10.62755 6.07764 6.549625 -22.8567 -4.477473 -78.31677 22.83302 -0.3735182 0 0 -27.95149 1.313691 5.8979 10.23341
43.99079 101.165 335.6288 -0.1035445 0.7330243 12.84383 3.01724 -30.28751 0.7453619 -0 12.12641 -0 -7.884111 -5.395182 -13.43923 -2.865107 11.98224 -7.565107 -0 23.93472 -0 -6.452683 -20.02434 10.16588 -1.703991 -6.954034 1.497494 0.6779819 8.23596 -8.205485 3.760084 23.25714 3.86674 1.180653 -14.45122 7.76355 2.110246 -12.5122 7.785921 91.34848 18.06613 -24.02274 -0 0 5.83609 -15.16331 10.65042 5.319729 6.629415 -22.76741 -3.939847 -78.3483 22.79899 -1.158482 0 0 -28.0764 1.836484 6.334605 9.569115
44.89317 100.6918 343.1829 -0.1110209 0.7721475 13.05151 4.334754 -28.95193 2.56088 -0 16.76098 -0 -8.954871 -5.009128 -12.81121 -2.858374 11.50598 -8.141348 -0 31.48477 -0 -7.666307 -16.81463 11.00127 -1.455177 -8.044283 1.495355 0.6155736 8.197427 -8.022132 3.843475 23.54116 3.639609 1.269794 -14.55535 7.532217 2.10725 -11.89716 7.505642 91.59257 18.3064 -23.87946 -0 0 5.047043 -14.68509 10.66569 4.898395 6.435837 -22.0459 -3.254509 -79.24499 22.97532 -0.5514562 0 0 -26.91095 2.108776 6.695626 9.340537
45.63985 101.2162 350.4013 -0.1153351 0.7907568 13.15302 4.342683 -27.77868 4.743639 -0 22.65648 -0 -10.25016 -5.426214 -11.91805 -2.376532 9.298832 -8.210414 -0 39.69465 -0 -8.590202 -13.30279 12.65374 -1.347422 -8.76631 1.65725 0.6484935 8.260155 -7.829924 3.987349 23.97572 3.305733 1.40449 -14.80565 7.221516 2.376276 -11.74692 7.543209 91.32621 18.63986 -22.93017 -0 0 5.033885 -14.60576 10.64595 4.840675 5.913117 -21.14094 -2.869009 -80.60372 23.25657 0.9681691 0 0 -24.54926 2.134984 7.002708 9.473934
46.42798 102.1168 357.5231 -0.08227573 0.5976159 12.16135 5.392794 -24.85884 6.288946 -0 26.21443 -0 -11.22512 -6.859409 -11.57386 -2.040638 3.259146 -7.773293 -0 48.5731 -0 -8.511236 -11.07571 15.25114 -1.378399 -9.53307 2.235524 0.6294331 8.403534 -7.391099 4.447685 24.68983 2.677577 1.732625 -15.05629 6.795193 2.475275 -12.14781 7.910616 90.20301 19.16049 -21.06976 -0 0 5.770844 -14.94792 10.58599 5.06376 5.262542 -20.0217 -2.515984 -82.35591 23.5473 3.299093 0 0 -21.25399 1.954377 7.260309 9.879417
47.20652 103.2956 364.4174 -0.08127498 0.5892454 12.11885 6.006374 -21.23651 7.330985 -0 27.60925 -0 -11.75167 -8.506202 -11.4425 -2.324309 -2.416415 -6.854119 -0 56.5326 -0 -8.530611 -8.923772 17.78459 -1.437226 -10.34104 3.000664 0.6096889 8.229777 -6.830549 4.874305 25.20749 2.29463 2.004787 -15.40896 6.686469 2.755556 -12.48847 8.369415 89.02482 19.57797 -18.8776 -0 0 6.834373 -15.40151 10.50421 5.416709 4.422348 -19.15549 -2.444781 -84.29215 23.75844 5.892001 0 0 -17.5743 1.65927 7.500103 10.3478
